[img]http://briefcase.pathfinder.gr/download/540731/numberone.gif[/img]
[img]http://briefcase.pathfinder.gr/download/538827/seed.gif[/img]

[img]http://www.33smiley.com/smiley5/work/5.gif[/img]


[img]http://photoserver.ws/files/6dwth1v8w9ctoqlt4xvz.jpg[/img]

IMDB Link:http://www.imdb.com/title/tt0482495/

Plot:It's 1905 when 12 year old Sophia plays all by herself in her big, creepy house with only four handmade dolls 

as friends. When her abusive father has finally had enough, he forces her to bury them in the backyard. But, after 

she "slips" and breaks her neck, dad buries her right along with the dolls. 100 years later, the Fillbrook family 

moves into the very same house. Guy Fillbrook finds the buried dolls while playing in the backyard. Much like 

Sophia, Guy has no friends and is the constant source of harassment from Tom and Rich. After Sophia's spirit 

possesses the dolls, they come to life, protecting Guy from further harm. One night, Guy's sister DeeDee, has a 

party with her best friends Terri and Olivia. After smoking and drinking with the boys, the dolls stand up for Guy 

once and for all, violently showing the nasty teenage boys who's boss! With no testosterone left to protect them, 

the girls fight to the death!

[IMG]http://i981.photobucket.com/albums/ae294/fasamoo/DollGraveyard2005DVDripGoGo_2010-5.jpg[/IMG]
[IMG]http://i981.photobucket.com/albums/ae294/fasamoo/DollGraveyard2005DVDripGoGo_2010-4.jpg[/IMG]
[IMG]http://i981.photobucket.com/albums/ae294/fasamoo/DollGraveyard2005DVDripGoGo_2010-3.jpg[/IMG]
[IMG]http://i981.photobucket.com/albums/ae294/fasamoo/DollGraveyard2005DVDripGoGo_2010-2.jpg[/IMG]
[IMG]http://i981.photobucket.com/albums/ae294/fasamoo/DollGraveyard2005DVDripGoGo_2010-1.jpg[/IMG]
[IMG]http://i981.photobucket.com/albums/ae294/fasamoo/DollGraveyard2005DVDripGoGo_2010051.jpg[/IMG]

General
Complete name                    : Doll Graveyard 2005 DVDrip GoGoDoll Graveyard 2005 DVDrip GoGo.avi
Format                           : AVI
Format/Info                      : Audio Video Interleave
File size                        : 702 MiB
Duration                         : 1h 11mn
Overall bit rate                 : 1 374 Kbps
Writing application              : VirtualDubMod 1.5.4.1 (build 2178/release)
Writing library                  : VirtualDubMod build 2178/release

Video
ID                               : 0
Format                           : MPEG-4 Visual
Format profile                   : Simple@L0
Format settings, BVOP            : No
Format settings, QPel            : No
Format settings, GMC             : No warppoints
Format settings, Matrix          : Default (H.263)
Codec ID                         : XVID
Codec ID/Hint                    : XviD
Duration                         : 1h 11mn
Bit rate                         : 1 250 Kbps
Width                            : 624 pixels
Height                           : 352 pixels
Display aspect ratio             : 16:9
Frame rate                       : 23.976 fps
Resolution                       : 8 bits
Colorimetry                      : 4:2:0
Scan type                        : Progressive
Bits/(Pixel*Frame)               : 0.237
Stream size                      : 639 MiB (91%)
Writing library                  : XviD 1.0.3 (UTC 2004-12-20)

Audio
ID                               : 1
Format                           : MPEG Audio
Format version                   : Version 1
Format profile                   : Layer 3
Mode                             : Joint stereo
Format_Settings_ModeExtension    : MS Stereo
Codec ID                         : 55
Codec ID/Hint                    : MP3
Duration                         : 1h 11mn
Bit rate mode                    : Variable
Bit rate                         : 112 Kbps
Channel(s)                       : 2 channels
Sampling rate                    : 48.0 KHz
Stream size                      : 56.7 MiB (8%)
Alignment                        : Aligned on interleaves
Interleave, duration             : 24 ms (0.58 video frame)
Interleave, preload duration     : 517 ms
Writing library                  : LAME3.96r
Encoding settings                : -m j -V 4 -q 2 -lowpass 16 --abr 112
Language                         : English
